<svg width="16" height="16" fill="none" xmlns="http://www.w3.org/2000/svg"><path opacity=".01" fill="#ECF1F8" d="M0 0h16v16H0z"/><mask id="a" fill="#fff"><path fill-rule="evenodd" clip-rule="evenodd" d="M10 2a2 2 0 11-4 0 2 2 0 014 0zm0 6a2 2 0 11-4 0 2 2 0 014 0zm-2 8a2 2 0 100-4 2 2 0 000 4z"/></mask><path d="M8 6a4 4 0 004-4H8v4zM4 2a4 4 0 004 4V2H4zm4-4a4 4 0 00-4 4h4v-4zm4 4a4 4 0 00-4-4v4h4zM8 12a4 4 0 004-4H8v4zM4 8a4 4 0 004 4V8H4zm4-4a4 4 0 00-4 4h4V4zm4 4a4 4 0 00-4-4v4h4zm-4 6v4a4 4 0 004-4H8zm0 0h4a4 4 0 00-4-4v4zm0 0v-4a4 4 0 00-4 4h4zm0 0H4a4 4 0 004 4v-4z" fill="#3E4056" mask="url(#a)"/><mask id="c" maskUnits="userSpaceOnUse" x="6" y="0" width="4" height="16"><g fill="#fff"><mask id="b"><path fill-rule="evenodd" clip-rule="evenodd" d="M10 2a2 2 0 11-4 0 2 2 0 014 0zm0 6a2 2 0 11-4 0 2 2 0 014 0zm-2 8a2 2 0 100-4 2 2 0 000 4z"/></mask><path fill-rule="evenodd" clip-rule="evenodd" d="M10 2a2 2 0 11-4 0 2 2 0 014 0zm0 6a2 2 0 11-4 0 2 2 0 014 0zm-2 8a2 2 0 100-4 2 2 0 000 4z"/><path d="M8 6a4 4 0 004-4H8v4zM4 2a4 4 0 004 4V2H4zm4-4a4 4 0 00-4 4h4v-4zm4 4a4 4 0 00-4-4v4h4zM8 12a4 4 0 004-4H8v4zM4 8a4 4 0 004 4V8H4zm4-4a4 4 0 00-4 4h4V4zm4 4a4 4 0 00-4-4v4h4zm-4 6v4a4 4 0 004-4H8zm0 0h4a4 4 0 00-4-4v4zm0 0v-4a4 4 0 00-4 4h4zm0 0H4a4 4 0 004 4v-4z" mask="url(#b)"/></g></mask><g mask="url(#c)"><path fill="#3E4056" d="M-4-4h24v24H-4z"/></g></svg>